<?xml version="1.0" encoding="UTF-8"?>
<svg xmlns="http://www.w3.org/2000/svg" xmlns:xlink="http://www.w3.org/1999/xlink" viewBox="0 0 30 30" width="30px" height="30px">
<g id="surface125903265">
<path style=" stroke:none;fill-rule:nonzero;fill:rgb(80.000001%,80.000001%,80.000001%);fill-opacity:1;" d="M 14.851562 15.148438 L 14.851562 14.851562 L 15.148438 14.851562 L 15.148438 15.148438 Z M 14.851562 15.148438 "/>
<path style=" stroke:none;fill-rule:nonzero;fill:rgb(0%,0%,0%);fill-opacity:1;" d="M 13.402344 5.402344 C 8.992188 5.402344 5.402344 8.992188 5.402344 13.402344 C 5.402344 17.808594 8.992188 21.402344 13.402344 21.402344 C 15.320312 21.402344 17.078125 20.71875 18.460938 19.589844 L 23.234375 24.367188 C 23.4375 24.574219 23.734375 24.660156 24.015625 24.585938 C 24.296875 24.515625 24.515625 24.296875 24.585938 24.015625 C 24.660156 23.734375 24.574219 23.4375 24.367188 23.234375 L 19.589844 18.460938 C 20.71875 17.078125 21.402344 15.320312 21.402344 13.402344 C 21.402344 8.992188 17.808594 5.402344 13.402344 5.402344 Z M 13.402344 7 C 16.945312 7 19.800781 9.855469 19.800781 13.402344 C 19.800781 16.945312 16.945312 19.800781 13.402344 19.800781 C 9.855469 19.800781 7 16.945312 7 13.402344 C 7 9.855469 9.855469 7 13.402344 7 Z M 13.402344 7 "/>
</g>
</svg>
